<?xml version="1.0" encoding="utf-8"?>
<!-- Generator: Adobe Illustrator 21.0.0, SVG Export Plug-In . SVG Version: 6.00 Build 0)  -->
<svg version="1.1" id="Layer_1" xmlns="http://www.w3.org/2000/svg" xmlns:xlink="http://www.w3.org/1999/xlink" x="0px" y="0px"
	 viewBox="0 0 100 100" style="enable-background:new 0 0 100 100;" xml:space="preserve">
<style type="text/css">
	.st0{fill:#93CED9;stroke:#92CDD6;stroke-miterlimit:10;}
	.st1{fill:#FFFFFF;stroke:#93CED9;stroke-miterlimit:10;}
</style>
<title>my-logo</title>
<polygon class="st0" points="42.3,28.1 42.2,28.1 42.2,12.7 32.4,12.7 32.4,28.1 11.5,28.1 11.5,12.7 1.6,12.7 1.6,28.1 1.6,38
	1.6,53.3 11.5,53.3 11.5,38 32.4,38 32.4,53.4 42.2,53.4 42.2,38 42.3,38 "/>
<path class="st0" d="M98,78.9V58.3h-9.9l-0.2,20.6c0,2.1-0.6,4.1-1.8,5.8c-0.2,0.3-0.4,0.5-0.6,0.8c-0.4,0.5-0.9,1-1.4,1.4
	c-4.4,3.6-10.9,3-14.5-1.4c-1.5-1.9-2.4-4.2-2.4-6.6V58.5h-9.9v20.3c0,11.2,9.1,20.3,20.3,20.3C88.9,99.2,98,90.1,98,78.9L98,78.9z"
	/>
<polygon class="st0" points="42.3,24 42.2,24 42.2,8.6 32.4,8.6 32.4,24 11.5,24 11.5,8.6 1.6,8.6 1.6,24 1.6,33.8 1.6,49.2
	11.5,49.2 11.5,33.8 32.4,33.8 32.4,49.2 42.2,49.2 42.2,33.8 42.3,33.8 "/>
<path class="st0" d="M98,74.8V54.2h-9.9l-0.2,20.5c0,2.1-0.6,4.1-1.8,5.8c-0.2,0.3-0.4,0.5-0.6,0.8c-0.4,0.5-0.9,1-1.4,1.4
	c-4.4,3.6-10.9,3-14.5-1.4c-1.5-1.9-2.4-4.2-2.4-6.6V54.4h-9.9v20.3c0,11.2,9.1,20.3,20.3,20.3C88.9,95.1,98,86,98,74.8L98,74.8z"/>
<polygon class="st1" points="42.3,17.1 42.2,17.1 42.2,1.7 32.4,1.7 32.4,17.1 11.5,17.1 11.5,1.7 1.6,1.7 1.6,17.1 1.6,26.9
	1.6,42.3 11.5,42.3 11.5,26.9 32.4,26.9 32.4,42.4 42.2,42.4 42.2,26.9 42.3,26.9 "/>
<path class="st1" d="M98,67.9V47.3h-9.9l-0.2,20.5c0,2.1-0.6,4.1-1.8,5.8c-0.2,0.3-0.4,0.5-0.6,0.8c-0.4,0.5-0.9,1-1.4,1.4
	c-4.4,3.6-10.9,3-14.5-1.4c-1.5-1.9-2.4-4.2-2.4-6.6V47.5h-9.9v20.3c0,11.2,9.1,20.3,20.3,20.3C88.9,88.2,98,79.1,98,67.9L98,67.9z"
	/>
</svg>
